<?xml version="1.0" encoding="UTF-8"?>
<svg version="1.1" xmlns="http://www.w3.org/2000/svg" width="512" height="512" viewBox="200 200 624 624">
<path d="M0 0 C1.10988281 0.350625 2.21976563 0.70125 3.36328125 1.0625 C27.47291455 9.37815795 46.61957458 28.63799585 58 51 C59.01032741 53.42815354 59.98593745 55.83437486 60.8203125 58.328125 C62.66360826 60.94047793 64.97714224 61.16472654 68 62 C70.9018709 62.29114739 70.9018709 62.29114739 73.91235352 62.24291992 C75.05958389 62.24599655 76.20681427 62.24907318 77.3888092 62.25224304 C79.24015724 62.24146477 79.24015724 62.24146477 81.12890625 62.23046875 C82.42779282 62.23001053 83.72667938 62.22955231 85.06492615 62.2290802 C87.82629728 62.22751676 90.58753858 62.21926098 93.34887695 62.20581055 C96.79288647 62.18920165 100.2367513 62.18515494 103.68079567 62.18551445 C110.42967344 62.18562255 117.17678301 62.14395545 123.9251194 62.05776787 C128.03608044 62.00855001 132.1440663 62.00633683 136.25518513 62.03617764 C138.28514259 62.04525507 140.31408226 62.03614181 142.34397888 62.0193634 C144.86236034 61.99914138 147.38119061 62.00761692 149.89930725 62.04936218 C155.88910765 62.13322953 155.88910765 62.13322953 160.84031677 59.26454163 C162.14457604 57.21518445 163.10192971 55.25266276 164 53 C164.55042969 51.95457031 165.10085938 50.90914063 165.66796875 49.83203125 C166.16941406 48.83558594 166.67085937 47.83914063 167.1875 46.8125 C179.68059728 23.37773583 200.38803671 7.00007518 225.5625 -0.9375 C247.8487307 -7.66670988 272.86753 -5.23505579 294 4 C294.83789062 4.35707031 295.67578125 4.71414062 296.5390625 5.08203125 C318.71109412 15.30138785 335.42340716 34.29090825 344 57 C349.38611486 72.87298749 350.64894446 88.89813702 349.19458008 105.52758789 C348.47027991 115.17690535 352.247895 120.68735032 358.125 127.9375 C384.5307423 161.62087774 394.74530854 205.9155572 396 248 C396.061875 249.65708984 396.061875 249.65708984 396.125 251.34765625 C397.21282141 307.30247004 379.42796318 361.94082279 341 403 C340.12859375 403.93714844 339.2571875 404.87429688 338.359375 405.83984375 C321.48776248 423.57222285 300.85942785 435.46746276 279 446 C279.11695343 450.25025868 279.24391708 454.5001539 279.375 458.75 C279.39512146 459.40693848 279.41524292 460.06387695 279.43597412 460.74072266 C279.69484375 469.00664636 280.04652973 477.26061108 280.546875 485.515625 C280.59425812 486.3071698 280.64164124 487.0987146 280.69046021 487.91424561 C280.92321052 491.77289965 281.16717156 495.63039835 281.42724609 499.48730469 C282.95939944 523.34726551 282.95939944 523.34726551 278 532 C276.31640625 533.828125 276.31640625 533.828125 274.5625 535.25 C273.98628906 535.72953125 273.41007812 536.2090625 272.81640625 536.703125 C266.87349447 540.9462362 261.12442231 540.63459819 254 540 C245.63267006 538.12948768 238.17190312 531.49625349 231.29785156 526.62548828 C228.91106128 524.93708521 226.51540366 523.26197277 224.1171875 521.58984375 C215.53240554 515.60193539 206.97442585 509.57632857 198.42724609 503.53491211 C190.50052609 497.93485345 182.545977 492.37463812 174.59228516 486.81298828 C170.18548894 483.73097013 165.78033413 480.64660747 161.375 477.5625 C157.87258275 475.11069413 157.87258275 475.11069413 154.36621094 472.66455078 C152.66658559 471.46892082 150.97839948 470.25696746 149.29785156 469.03466797 C147.96318848 468.07197998 147.96318848 468.07197998 146.6015625 467.08984375 C145.79283691 466.49937256 144.98411133 465.90890137 144.15087891 465.30053711 C141.991051 463.7412895 141.991051 463.7412895 139 464 C139 463.34 139 462.68 139 462 C138.43989227 462.00229111 137.87978455 462.00458221 137.30270386 462.00694275 C110.68392489 462.099296 84.07155304 461.59570354 57.45800781 461.12792969 C53.04596755 461.05074427 48.63399398 460.97840833 44.22167969 460.91894531 C-11.19569668 460.16853985 -65.43430015 450.91349731 -107.1796875 411.64453125 C-108.91084045 409.93301559 -108.91084045 409.93301559 -111 409 C-111 408.34 -111 407.68 -111 407 C-111.66 407 -112.32 407 -113 407 C-113 406.34 -113 405.68 -113 405 C-113.66 405 -114.32 405 -115 405 C-145.585014 376.23966013 -160.27030886 332.30837717 -166 292 C-166.11859375 291.17306641 -166.2371875 290.34613281 -166.359375 289.49414062 C-173.76321819 234.97893812 -165.15098045 173.06981121 -132 128 C-130.12741888 125.64054779 -128.25328068 123.30083354 -126.27734375 121.02734375 C-122.69138229 115.33586364 -124.16937828 108.08826365 -124.5625 101.6875 C-125.90598564 73.76608983 -118.86740591 48.2004066 -99.84765625 27.03515625 C-74.67116086 -0.13144031 -35.63923245 -12.24217702 0 0 Z M-68 50 C-69.24443525 52.10510713 -69.24443525 52.10510713 -70 54 C-70.66 54 -71.32 54 -72 54 C-83.54642206 68.77476677 -87.5684249 85.91699886 -85.76953125 104.36328125 C-85.68058594 105.04777344 -85.59164062 105.73226562 -85.5 106.4375 C-84.1732674 117.21217684 -83.58798839 126.81987605 -90 136 C-91.85889634 138.36777972 -93.77532458 140.68152402 -95.6953125 143 C-113.9524367 166.76520574 -123.56781559 195.69131123 -128 225 C-128.185625 226.16144531 -128.37125 227.32289063 -128.5625 228.51953125 C-134.58002373 276.39108166 -125.16385932 326.28177022 -95.48046875 364.95703125 C-68.45027433 398.11690755 -34.17844424 415.25555562 8 420.1875 C24.41397444 421.85871248 40.90876339 422.15999883 57.39453125 422.31640625 C59.28383209 422.33709348 61.17312954 422.35809179 63.06242371 422.37937927 C66.98926748 422.42284622 70.91612562 422.46381941 74.84301758 422.50268555 C79.80477625 422.55182092 84.7664734 422.60539232 89.72816658 422.6607151 C93.60666576 422.70369722 97.48518383 422.744804 101.36370468 422.78577805 C103.25319047 422.80613151 105.14266883 422.82718664 107.03213882 422.84895706 C119.8002111 422.99749144 119.8002111 422.99749144 132.56787109 422.88623047 C133.63365891 422.86906479 134.69944672 422.85189911 135.79753113 422.83421326 C137.62620788 422.79837344 139.45470712 422.74617841 141.28218079 422.67079163 C150.70493413 422.48707293 157.70136438 427.13850534 165.0625 432.5625 C166.55270561 433.63766161 168.04360743 434.71185882 169.53515625 435.78515625 C170.28039551 436.32414551 171.02563477 436.86313477 171.79345703 437.41845703 C175.15999128 439.83142548 178.57821043 442.16638202 182 444.5 C191.10232495 450.73050441 200.10185139 457.10464331 209.09716797 463.48828125 C217.52438647 469.46799725 225.98298893 475.39866116 234.5 481.25 C235.33192871 481.82355225 236.16385742 482.39710449 237.02099609 482.98803711 C237.78750488 483.51276611 238.55401367 484.03749512 239.34375 484.578125 C240.02630859 485.04637695 240.70886719 485.51462891 241.41210938 485.99707031 C242.82789587 487.08900209 242.82789587 487.08900209 244 487 C244.12237953 478.90935318 243.92940193 470.88941663 243.5 462.8125 C241.97355819 431.9705476 241.97355819 431.9705476 247 423 C247.29132813 422.29746094 247.58265625 421.59492187 247.8828125 420.87109375 C249.31120209 418.47879091 250.47042203 418.1607207 253 417 C253.95503418 416.55333984 254.91006836 416.10667969 255.89404297 415.64648438 C256.99893066 415.13408203 258.10381836 414.62167969 259.2421875 414.09375 C277.72324917 405.45487373 293.22414721 396.23854905 308 382 C308.82886719 381.24589844 309.65773438 380.49179687 310.51171875 379.71484375 C338.29255098 353.63396583 352.56988462 315.02941066 357 278 C357.13148438 277.03578125 357.26296875 276.0715625 357.3984375 275.078125 C362.87918753 228.56581389 349.83747492 179.7511767 320.89453125 143.0078125 C319.46996681 141.21360014 318.03743663 139.43161692 316.56494141 137.67651367 C311.46136115 131.480415 308.95490135 125.02756014 309 117 C309.34777728 113.63351594 309.77066616 110.29074709 310.22607422 106.93798828 C312.78169733 88.01220396 308.2554734 70.4327625 297 55 C288.60997668 44.42291442 275.37825003 37.71934584 262.25 35.3125 C245.65389413 33.76484727 229.96047224 36.37860534 216.75 47.25 C215.8425 48.1575 214.935 49.065 214 50 C214 50.66 214 51.32 214 52 C213.34 52 212.68 52 212 52 C203.62458394 61.72509679 198.97688499 72.34981989 195.30859375 84.484375 C192.5870022 91.79611351 188.65893146 96.27413775 181.63328552 99.58802795 C175.90557516 101.66142223 170.14204317 101.42681652 164.11743164 101.40405273 C162.84324875 101.41091599 161.56906586 101.41777924 160.25627136 101.42485046 C156.78097119 101.44270656 153.30592455 101.4416279 149.83059239 101.43590808 C146.92070166 101.43280527 144.01085886 101.43892075 141.10097498 101.44494683 C134.23207055 101.4589656 127.36329057 101.45745287 120.49438477 101.44604492 C113.42673449 101.43456571 106.35946378 101.44864182 99.2918635 101.4754414 C93.20580992 101.49764825 87.11987505 101.50422461 81.03378385 101.49836498 C77.40673344 101.49500613 73.77992627 101.49733852 70.15291023 101.51461601 C66.10568591 101.53305603 62.05919298 101.5188471 58.01196289 101.50170898 C56.82259125 101.51137695 55.6332196 101.52104492 54.4078064 101.53100586 C45.67299528 101.45372205 38.93769786 99.92077008 32.375 93.9375 C27.81188758 88.33923708 25.9546937 81.23912745 23.6171875 74.51171875 C21.91437211 69.65064775 19.8983878 65.26853476 17 61 C16.51273438 60.27039063 16.02546875 59.54078125 15.5234375 58.7890625 C6.83502523 46.72411086 -5.34981835 38.74523306 -19.796875 35.50390625 C-37.42513625 32.73067979 -55.02496417 37.50034264 -68 50 Z " fill="#1972f5" transform="translate(398,242)"/>
<path d="M0 0 C0.33 0.66 0.66 1.32 1 2 C1.7425 2.268125 2.485 2.53625 3.25 2.8125 C7.65209979 4.71340673 10.12460555 7.73218735 12.8125 11.625 C14.96959747 17.75569806 15.14608567 24.24908174 12.4375 30.25 C-1.73127151 54.30282861 -40.68197498 67.98351453 -66 75 C-75.26081434 77.36522661 -84.60021295 79.27833762 -94 81 C-94.97710938 81.18079102 -95.95421875 81.36158203 -96.9609375 81.54785156 C-155.43220726 91.8458378 -221.65017211 80.4051736 -271 47 C-278.76488828 41.46590835 -286.87435039 35.37694882 -290 26 C-290.5116518 19.7322654 -290.68819272 14.34152049 -287 9 C-283.36876528 4.89097123 -280.11599746 1.49776317 -274.5546875 0.609375 C-266.87852838 0.13896971 -262.8532423 2.29237585 -257 7 C-212.85509943 40.64849079 -155.07941939 47.04542936 -101.16796875 39.90625 C-71.7395444 35.68985695 -40.27210852 27.26934817 -18.38671875 6.015625 C-14.14963886 2.43733822 -10.14525218 0.68549001 -4.625 0.3125 C-3.75101563 0.24675781 -2.87703125 0.18101562 -1.9765625 0.11328125 C-1.32429688 0.07589844 -0.67203125 0.03851563 0 0 Z " fill="#1557c7" transform="translate(650,459)"/>
<path d="M0 0 C5.8447466 6.6797104 6.62085591 12.41965327 6.5234375 21.109375 C5.81102993 28.29972114 2.56651146 33.53269923 -2.625 38.4375 C-8.10023706 42.79303567 -13.62586334 45.12569162 -20.74609375 44.77734375 C-28.73950725 43.70450375 -34.39811808 40.4656199 -39.8125 34.5 C-44.84085127 27.53878538 -45.42958915 20.87145468 -44.8125 12.5 C-43.42290918 5.27157804 -38.86390119 -0.73804281 -32.82421875 -4.85546875 C-20.75564185 -11.34672273 -9.77919876 -8.69262112 0 0 Z " fill="#1972f5" transform="translate(387.8125,313.5)"/>
<path d="M0 0 C5.94977275 4.67399302 9.70380262 11.13267321 11.00390625 18.57421875 C11.44374909 26.90457557 8.64488572 34.35417283 3.2109375 40.65234375 C-2.31472508 45.90227467 -7.9820618 48.1441439 -15.49609375 48.94921875 C-22.93166022 48.15255091 -28.6822396 46.00884231 -33.99609375 40.57421875 C-39.09628342 34.0998113 -41.43863773 27.26948363 -40.87109375 19.01171875 C-40.17837588 14.34198535 -38.43564562 10.58142489 -35.99609375 6.57421875 C-35.45984375 5.68734375 -34.92359375 4.80046875 -34.37109375 3.88671875 C-24.91148463 -5.32395329 -11.19350866 -6.98843385 0 0 Z " fill="#1557c7" transform="translate(667.99609375,309.42578125)"/>
</svg>